<?xml version="1.0" encoding="UTF-8" standalone="no"?>
<!DOCTYPE svg PUBLIC "-//W3C//DTD SVG 1.1//EN" "http://www.w3.org/Graphics/SVG/1.1/DTD/svg11.dtd">
<svg width="100%" height="100%" viewBox="0 0 299 151" version="1.1" xmlns="http://www.w3.org/2000/svg" xmlns:xlink="http://www.w3.org/1999/xlink" xml:space="preserve" xmlns:serif="http://www.serif.com/" style="fill-rule:evenodd;clip-rule:evenodd;stroke-linejoin:round;stroke-miterlimit:2;">
    <g transform="matrix(1,0,0,1,-2665,-2483)">
        <g transform="matrix(0.153965,-0.0244145,0.0175129,0.110442,2210.44,2388.46)">
            <path d="M2835.08,2335.11L2707.19,2329.92L2707.19,2162.41L3116.5,2162.41L3116.5,2329.92L2981.65,2327.87L2987.71,2796.29L2835.68,2786.89L2835.08,2335.11Z" style="fill:rgb(0,107,255);fill-rule:nonzero;"/>
        </g>
        <g transform="matrix(0.107991,0.0232379,-0.0213229,0.0990919,2426.63,2256.95)">
            <path d="M3930.72,2526.15L3748.91,2162.41L3957.08,2162.41L4024.71,2297.37L4091.46,2162.41L4299.63,2162.41L4117.81,2526.15L4117.81,2800.88L3930.72,2800.88L3930.72,2526.15Z" style="fill:rgb(0,107,255);fill-rule:nonzero;"/>
        </g>
        <g transform="matrix(1,0,0,1,36.1751,408.781)">
            <path d="M2819.96,2157.14L2820.15,2208.44L2927.12,2213.57L2923.36,2149.31L2819.96,2157.14Z" style="fill:rgb(0,107,255);"/>
        </g>
        <g transform="matrix(1,0,0,1,27.9022,424.486)">
            <circle cx="2877.45" cy="2127.17" r="21.863" style="fill:rgb(0,107,255);"/>
        </g>
        <g transform="matrix(0.5,0,0,0.5,1439.28,1558.76)">
            <circle cx="2877.45" cy="2127.17" r="21.863" style="fill:rgb(0,107,255);"/>
        </g>
        <g transform="matrix(0.5,0,0,0.5,1503.53,1558.76)">
            <circle cx="2877.45" cy="2127.17" r="21.863" style="fill:rgb(0,107,255);"/>
        </g>
        <g transform="matrix(1,0,0,1,-32.2663,378.225)">
            <circle cx="2877.45" cy="2127.17" r="21.863" style="fill:rgb(0,107,255);"/>
        </g>
        <g transform="matrix(0.60144,-0.798918,0.938301,0.70637,-797.066,3329.89)">
            <rect x="2837.88" y="2059.68" width="25.011" height="55.766" style="fill:rgb(0,107,255);"/>
        </g>
        <g transform="matrix(0.263512,0.964656,-0.964656,0.263512,4069.19,-784.415)">
            <rect x="2837.88" y="2059.68" width="25.011" height="55.766" style="fill:rgb(0,107,255);"/>
        </g>
        <g transform="matrix(0.779433,0.1623,-0.131062,0.629415,908.92,762.148)">
            <rect x="2714.39" y="2111" width="52.099" height="29.386" style="fill:rgb(0,107,255);"/>
        </g>
        <g transform="matrix(1,0,0.193328,0.576131,-318.055,1365.82)">
            <rect x="2664.83" y="2055.11" width="11.38" height="52.721" style="fill:rgb(0,107,255);"/>
        </g>
        <g transform="matrix(0.0737779,0,0,0.0677618,2503.74,2421.01)">
            <path d="M3134.07,2482.12C3134.07,2436.17 3142.12,2392.78 3158.22,2351.94C3174.33,2311.09 3196.28,2275.52 3224.1,2245.2C3251.91,2214.89 3284.56,2190.96 3322.03,2173.41C3359.51,2155.86 3399.33,2147.09 3441.49,2147.09C3483.65,2147.09 3523.47,2155.86 3560.94,2173.41C3598.42,2190.96 3631.06,2214.89 3658.88,2245.2C3686.69,2275.52 3708.65,2311.09 3724.75,2351.94C3740.86,2392.78 3748.91,2436.17 3748.91,2482.12C3748.91,2528.07 3740.86,2571.46 3724.75,2612.3C3708.65,2653.14 3686.69,2688.72 3658.88,2719.03C3631.06,2749.35 3598.42,2773.28 3560.94,2790.83C3523.47,2808.38 3483.65,2817.15 3441.49,2817.15C3399.33,2817.15 3359.51,2808.38 3322.03,2790.83C3284.56,2773.28 3251.91,2749.35 3224.1,2719.03C3196.28,2688.72 3174.33,2653.14 3158.22,2612.3C3142.12,2571.46 3134.07,2528.07 3134.07,2482.12Z" style="fill:none;fill-rule:nonzero;stroke:rgb(0,107,255);stroke-width:235.29px;"/>
        </g>
        <g transform="matrix(0.615887,0,0,0.616468,1214.28,1254.74)">
            <g transform="matrix(0.0847351,0,0,0.0777521,2460.48,1973.34)">
                <path d="M3134.07,2482.12C3134.07,2436.17 3142.12,2392.78 3158.22,2351.94C3174.33,2311.09 3196.28,2275.52 3224.1,2245.2C3251.91,2214.89 3284.56,2190.96 3322.03,2173.41C3359.51,2155.86 3399.33,2147.09 3441.49,2147.09C3483.65,2147.09 3523.47,2155.86 3560.94,2173.41C3598.42,2190.96 3631.06,2214.89 3658.88,2245.2C3686.69,2275.52 3708.65,2311.09 3724.75,2351.94C3740.86,2392.78 3748.91,2436.17 3748.91,2482.12C3748.91,2528.07 3740.86,2571.46 3724.75,2612.3C3708.65,2653.14 3686.69,2688.72 3658.88,2719.03C3631.06,2749.35 3598.42,2773.28 3560.94,2790.83C3523.47,2808.38 3483.65,2817.15 3441.49,2817.15C3399.33,2817.15 3359.51,2808.38 3322.03,2790.83C3284.56,2773.28 3251.91,2749.35 3224.1,2719.03C3196.28,2688.72 3174.33,2653.14 3158.22,2612.3C3142.12,2571.46 3134.07,2528.07 3134.07,2482.12Z" style="fill:white;fill-rule:nonzero;"/>
            </g>
            <g transform="matrix(0.479777,0,0,0.479777,1431.38,1126.75)">
                <circle cx="2752.76" cy="2166.8" r="24.199" style="fill:rgb(0,107,255);"/>
            </g>
        </g>
        <g transform="matrix(-0.990122,0,-0.300207,0.502826,6040.35,1523.96)">
            <path d="M2676.18,2052.58L2664.49,2056.84L2664.83,2107.84L2676.21,2107.84L2676.18,2052.58Z" style="fill:rgb(0,107,255);"/>
        </g>
        <g transform="matrix(0.844691,0,0,0.844691,339.519,730.009)">
            <circle cx="2877.45" cy="2127.17" r="21.863" style="fill:rgb(0,107,255);"/>
        </g>
        <g transform="matrix(2.3077,0,0,0.858425,-3433.96,854.48)">
            <path d="M2728.59,2004.11L2735.42,2004.11C2736.56,2004.11 2737.43,2004.96 2738.04,2006.67C2738.65,2008.38 2738.95,2010.5 2738.95,2013.02C2738.95,2015.14 2738.74,2016.95 2738.3,2018.47C2738.01,2019.47 2737.59,2020.27 2737.03,2020.86C2737.88,2021.48 2738.5,2022.54 2738.9,2024.04C2739.3,2025.55 2739.5,2027.44 2739.5,2029.72C2739.5,2031.58 2739.36,2033.24 2739.08,2034.73C2738.79,2036.21 2738.4,2037.38 2737.91,2038.24C2737.6,2038.78 2737.14,2039.17 2736.52,2039.41C2735.7,2039.74 2735.16,2039.9 2734.89,2039.9L2728.59,2039.9L2728.59,2004.11ZM2732.27,2018.15L2733.86,2018.15C2734.43,2018.15 2734.82,2017.85 2735.04,2017.26C2735.27,2016.66 2735.38,2015.8 2735.38,2014.68C2735.38,2013.64 2735.27,2012.83 2735.04,2012.24C2734.82,2011.65 2734.43,2011.36 2733.88,2011.36L2732.27,2011.36L2732.27,2018.15ZM2732.27,2032.21L2734.13,2032.21C2734.76,2032.21 2735.2,2031.87 2735.46,2031.2C2735.72,2030.52 2735.85,2029.61 2735.85,2028.48C2735.85,2027.42 2735.72,2026.57 2735.46,2025.92C2735.21,2025.28 2734.76,2024.96 2734.12,2024.96L2732.27,2024.96L2732.27,2032.21Z" style="fill:white;fill-rule:nonzero;"/>
        </g>
        <g transform="matrix(2.60259,0,0,0.858425,-4239.51,854.48)">
            <path d="M2753.89,2004.11L2764.98,2004.11L2764.98,2012.95L2761.26,2012.95L2761.26,2039.9L2757.61,2039.9L2757.61,2012.95L2753.89,2012.95L2753.89,2004.11Z" style="fill:white;fill-rule:nonzero;"/>
        </g>
    </g>
</svg>
