<?xml version="1.0" encoding="UTF-8" standalone="no"?>
<!DOCTYPE svg PUBLIC "-//W3C//DTD SVG 1.1//EN" "http://www.w3.org/Graphics/SVG/1.1/DTD/svg11.dtd">
<svg width="100%" height="100%" viewBox="0 0 299 151" version="1.1" xmlns="http://www.w3.org/2000/svg" xmlns:xlink="http://www.w3.org/1999/xlink" xml:space="preserve" xmlns:serif="http://www.serif.com/" style="fill-rule:evenodd;clip-rule:evenodd;stroke-linejoin:round;stroke-miterlimit:2;">
    <g transform="matrix(1,0,0,1,-2714,-2791)">
        <g transform="matrix(0.153965,-0.0244145,0.0175129,0.110442,2259.52,2696.99)">
            <path d="M2835.08,2335.11L2707.19,2329.92L2707.19,2162.41L3116.5,2162.41L3116.5,2329.92L2981.65,2327.87L2987.71,2796.29L2835.68,2786.89L2835.08,2335.11Z" style="fill:white;fill-rule:nonzero;"/>
        </g>
        <g transform="matrix(0.107991,0.0232379,-0.0213229,0.0990919,2475.72,2565.48)">
            <path d="M3930.72,2526.15L3748.91,2162.41L3957.08,2162.41L4024.71,2297.37L4091.46,2162.41L4299.63,2162.41L4117.81,2526.15L4117.81,2800.88L3930.72,2800.88L3930.72,2526.15Z" style="fill:white;fill-rule:nonzero;"/>
        </g>
        <g transform="matrix(1,0,0,1,76.987,733.013)">
            <circle cx="2877.45" cy="2127.17" r="21.863" style="fill:white;"/>
        </g>
        <g transform="matrix(0.5,0,0,0.5,1488.36,1867.29)">
            <circle cx="2877.45" cy="2127.17" r="21.863" style="fill:white;"/>
        </g>
        <g transform="matrix(0.5,0,0,0.5,1552.62,1867.29)">
            <circle cx="2877.45" cy="2127.17" r="21.863" style="fill:white;"/>
        </g>
        <g transform="matrix(1,0,0,1,16.8185,686.752)">
            <circle cx="2877.45" cy="2127.17" r="21.863" style="fill:white;"/>
        </g>
        <g transform="matrix(0.60144,-0.798918,0.938301,0.70637,-747.982,3638.41)">
            <rect x="2837.88" y="2059.68" width="25.011" height="55.766" style="fill:white;"/>
        </g>
        <g transform="matrix(0.263512,0.964656,-0.964656,0.263512,4118.28,-475.888)">
            <rect x="2837.88" y="2059.68" width="25.011" height="55.766" style="fill:white;"/>
        </g>
        <g transform="matrix(0.779433,0.1623,-0.131062,0.629415,958.005,1070.67)">
            <rect x="2714.39" y="2111" width="52.099" height="29.386" style="fill:white;"/>
        </g>
        <g transform="matrix(1,0,0.193328,0.576131,-268.97,1674.34)">
            <rect x="2664.83" y="2055.11" width="11.38" height="52.721" style="fill:white;"/>
        </g>
        <g transform="matrix(0.0737779,0,0,0.0677618,2552.83,2729.53)">
            <path d="M3134.07,2482.12C3134.07,2436.17 3142.12,2392.78 3158.22,2351.94C3174.33,2311.09 3196.28,2275.52 3224.1,2245.2C3251.91,2214.89 3284.56,2190.96 3322.03,2173.41C3359.51,2155.86 3399.33,2147.09 3441.49,2147.09C3483.65,2147.09 3523.47,2155.86 3560.94,2173.41C3598.42,2190.96 3631.06,2214.89 3658.88,2245.2C3686.69,2275.52 3708.65,2311.09 3724.75,2351.94C3740.86,2392.78 3748.91,2436.17 3748.91,2482.12C3748.91,2528.07 3740.86,2571.46 3724.75,2612.3C3708.65,2653.14 3686.69,2688.72 3658.88,2719.03C3631.06,2749.35 3598.42,2773.28 3560.94,2790.83C3523.47,2808.38 3483.65,2817.15 3441.49,2817.15C3399.33,2817.15 3359.51,2808.38 3322.03,2790.83C3284.56,2773.28 3251.91,2749.35 3224.1,2719.03C3196.28,2688.72 3174.33,2653.14 3158.22,2612.3C3142.12,2571.46 3134.07,2528.07 3134.07,2482.12Z" style="fill:none;fill-rule:nonzero;stroke:white;stroke-width:235.29px;"/>
        </g>
        <g transform="matrix(-0.990122,0,-0.300207,0.502826,6089.44,1832.48)">
            <path d="M2676.18,2052.58L2664.49,2056.84L2664.83,2107.84L2676.21,2107.84L2676.18,2052.58Z" style="fill:white;"/>
        </g>
        <g transform="matrix(0.844691,0,0,0.844691,388.604,1038.54)">
            <circle cx="2877.45" cy="2127.17" r="21.863" style="fill:white;"/>
        </g>
        <path d="M2905.22,2874.45L2905.41,2925.75L3012.38,2930.87L3008.62,2866.62L2905.22,2874.45ZM2942.3,2898.75C2942.3,2896.54 2942.72,2894.46 2943.56,2892.51C2944.4,2890.55 2945.55,2888.84 2947,2887.39C2948.45,2885.94 2950.16,2884.79 2952.11,2883.95C2954.07,2883.11 2956.14,2882.69 2958.35,2882.69C2960.55,2882.69 2962.62,2883.11 2964.58,2883.95C2966.53,2884.79 2968.24,2885.94 2969.69,2887.39C2971.14,2888.84 2972.29,2890.55 2973.13,2892.51C2973.97,2894.46 2974.39,2896.54 2974.39,2898.75C2974.39,2900.95 2973.97,2903.03 2973.13,2904.99C2972.29,2906.94 2971.14,2908.65 2969.69,2910.1C2968.24,2911.55 2966.53,2912.7 2964.58,2913.54C2962.62,2914.38 2960.55,2914.8 2958.35,2914.8C2956.14,2914.8 2954.07,2914.38 2952.11,2913.54C2950.16,2912.7 2948.45,2911.55 2947,2910.1C2945.55,2908.65 2944.4,2906.94 2943.56,2904.99C2942.72,2903.03 2942.3,2900.95 2942.3,2898.75ZM2911.9,2883.38L2927.66,2883.38C2930.29,2883.38 2932.3,2884.12 2933.71,2885.59C2935.12,2887.05 2935.82,2888.87 2935.82,2891.03C2935.82,2892.85 2935.32,2894.41 2934.31,2895.71C2933.64,2896.57 2932.67,2897.26 2931.38,2897.76C2933.34,2898.29 2934.78,2899.2 2935.7,2900.5C2936.62,2901.79 2937.08,2903.41 2937.08,2905.37C2937.08,2906.96 2936.75,2908.39 2936.1,2909.66C2935.44,2910.94 2934.54,2911.94 2933.4,2912.68C2932.7,2913.14 2931.63,2913.48 2930.21,2913.69C2928.31,2913.97 2927.05,2914.11 2926.43,2914.11L2911.9,2914.11L2911.9,2883.38ZM2976.84,2883.38L3005.7,2883.38L3005.7,2890.97L2996.02,2890.97L2996.02,2914.11L2986.52,2914.11L2986.52,2890.97L2976.84,2890.97L2976.84,2883.38ZM2920.39,2907.51L2924.69,2907.51C2926.14,2907.51 2927.16,2907.22 2927.75,2906.64C2928.35,2906.06 2928.65,2905.28 2928.65,2904.3C2928.65,2903.39 2928.35,2902.66 2927.76,2902.11C2927.18,2901.56 2926.14,2901.28 2924.67,2901.28L2920.39,2901.28L2920.39,2907.51ZM2920.39,2895.43L2924.06,2895.43C2925.37,2895.43 2926.28,2895.18 2926.8,2894.67C2927.31,2894.16 2927.57,2893.42 2927.57,2892.46C2927.57,2891.56 2927.31,2890.87 2926.8,2890.36C2926.28,2889.86 2925.39,2889.61 2924.11,2889.61L2920.39,2889.61L2920.39,2895.43Z" style="fill:white;"/>
        <g transform="matrix(0.295488,0,0,0.295767,2144.94,2257.88)">
            <circle cx="2752.76" cy="2166.8" r="24.199" style="fill:white;"/>
        </g>
    </g>
</svg>
